<?xml version="1.0" standalone="no"?>
<!DOCTYPE svg PUBLIC "-//W3C//DTD SVG 20010904//EN"
 "http://www.w3.org/TR/2001/REC-SVG-20010904/DTD/svg10.dtd">
<svg version="1.0" xmlns="http://www.w3.org/2000/svg"
 width="260.000000pt" height="280.000000pt" viewBox="0 0 260.000000 280.000000"
 preserveAspectRatio="xMidYMid meet">

<g transform="translate(0.000000,280.000000) scale(0.100000,-0.100000)"
fill="#000000" stroke="none">
<path d="M993 1993 c-109 -108 -196 -214 -292 -352 -58 -85 -56 -95 16 -106
83 -12 216 -55 313 -101 108 -51 216 -118 224 -140 8 -20 43 -18 56 4 7 12 10
-32 8 -160 -2 -114 -7 -174 -13 -170 -5 3 -26 17 -45 30 -99 67 -305 151 -413
167 -42 7 -47 10 -47 34 0 41 -20 264 -25 289 -3 12 -10 22 -15 22 -16 0 -13
-365 3 -377 6 -6 30 -14 52 -18 131 -23 304 -99 438 -191 80 -55 100 -63 113
-43 10 17 228 158 352 229 62 35 114 71 117 80 8 28 -12 301 -23 312 -21 21
-33 -42 -31 -171 l2 -126 -39 -22 c-21 -12 -42 -19 -47 -16 -5 3 -7 74 -6 159
2 87 -1 158 -7 164 -6 6 -38 -9 -85 -39 l-76 -49 -6 -122 c-4 -68 -7 -149 -7
-180 l0 -57 -70 -47 c-38 -25 -73 -46 -76 -46 -4 0 -3 107 1 238 l7 237 40 70
c51 88 194 299 212 314 10 9 26 -10 75 -91 79 -132 162 -243 181 -243 35 0 14
42 -100 201 -90 126 -119 174 -115 190 2 12 -1 26 -8 31 -13 11 -362 150 -410
164 -49 14 -55 -6 -9 -34 21 -14 109 -56 193 -92 85 -37 155 -68 156 -69 1 -1
-28 -44 -66 -96 -61 -86 -153 -234 -225 -363 l-27 -47 -32 24 c-88 67 -312
161 -447 187 -36 7 -67 14 -69 16 -6 4 109 159 179 242 35 42 104 117 152 167
48 50 85 94 81 97 -16 17 -39 0 -140 -100z m653 -686 c0 -61 3 -126 7 -144 6
-30 4 -33 -49 -64 -30 -17 -56 -30 -58 -28 -2 2 -1 70 2 152 l5 147 41 25 c22
14 43 25 46 25 3 0 5 -51 6 -113z"/>
<path d="M1623 1695 c-3 -9 2 -24 11 -34 20 -22 21 -45 1 -61 -19 -16 -35 -4
-35 26 0 32 -27 32 -42 -1 -28 -63 70 -105 120 -52 32 34 30 89 -4 116 -32 25
-43 26 -51 6z"/>
<path d="M926 1360 c-3 -19 -7 -60 -9 -90 l-2 -55 94 -32 c118 -41 121 -40
121 73 l0 84 -51 25 c-52 27 -89 30 -97 7 -2 -7 19 -22 52 -37 52 -23 56 -27
56 -59 0 -64 -4 -67 -70 -44 l-59 19 -7 57 c-9 76 -20 97 -28 52z"/>
<path d="M603 95 c0 -27 2 -38 4 -22 2 15 8 27 13 27 5 0 11 -12 13 -27 4 -26
4 -26 6 5 1 22 -4 32 -13 32 -8 0 -17 8 -19 18 -3 9 -5 -5 -4 -33z"/>
<path d="M1102 95 c0 -27 2 -43 5 -35 3 8 13 24 22 35 15 18 15 19 -1 7 -14
-12 -17 -10 -21 15 -2 16 -4 6 -5 -22z"/>
<path d="M719 119 c-8 -20 4 -62 19 -65 7 -1 8 0 2 3 -15 7 -12 43 4 43 8 0
16 -10 18 -22 2 -12 9 -23 16 -24 7 -1 8 0 2 3 -12 6 -13 40 -1 45 5 2 3 9 -5
16 -8 7 -14 8 -14 2 0 -14 -27 -13 -32 2 -3 8 -6 7 -9 -3z"/>
<path d="M948 117 c-7 -19 6 -60 20 -63 7 -1 8 0 2 3 -12 6 -13 40 -1 45 5 2
3 8 -4 15 -10 9 -14 9 -17 0z"/>
<path d="M1500 125 c-1 -5 -1 -21 0 -34 1 -13 -4 -28 -12 -32 -9 -6 -3 -9 17
-9 17 0 25 4 18 8 -6 4 -13 23 -16 42 -2 19 -5 31 -7 25z"/>
<path d="M1558 123 c7 -3 16 -2 19 1 4 3 -2 6 -13 5 -11 0 -14 -3 -6 -6z"/>
<path d="M1612 105 c-14 -17 -26 -25 -30 -19 -10 15 -42 25 -42 14 0 -6 6 -10
14 -10 26 0 28 -20 4 -29 -16 -7 -18 -10 -6 -10 9 -1 20 4 23 9 9 14 52 13 57
-2 8 -22 15 16 9 47 l-6 29 -23 -29z m14 -22 c-10 -10 -19 5 -10 18 6 11 8 11
12 0 2 -7 1 -15 -2 -18z"/>
<path d="M1678 123 c7 -3 16 -2 19 1 4 3 -2 6 -13 5 -11 0 -14 -3 -6 -6z"/>
<path d="M1732 105 c-14 -17 -26 -25 -30 -19 -10 15 -42 25 -42 14 0 -6 6 -10
14 -10 26 0 28 -20 4 -29 -16 -7 -18 -10 -6 -10 9 -1 20 4 23 9 9 14 52 13 57
-2 8 -22 15 16 9 47 l-6 29 -23 -29z m14 -22 c-10 -10 -19 5 -10 18 6 11 8 11
12 0 2 -7 1 -15 -2 -18z"/>
<path d="M1800 125 c-1 -5 -1 -21 0 -34 1 -13 -4 -28 -12 -32 -9 -6 -3 -9 17
-9 17 0 25 4 18 8 -6 4 -13 23 -16 42 -2 19 -5 31 -7 25z"/>
<path d="M1847 123 c-3 -5 -4 -21 -3 -38 1 -23 6 -30 21 -30 11 0 20 6 19 13
-1 6 -2 23 -2 37 -2 23 -25 35 -35 18z m23 -13 c0 -5 -4 -10 -10 -10 -5 0 -10
5 -10 10 0 6 5 10 10 10 6 0 10 -4 10 -10z m2 -35 c0 -5 -5 -11 -11 -13 -6 -2
-11 4 -11 13 0 9 5 15 11 13 6 -2 11 -8 11 -13z"/>
<path d="M1905 120 c-4 -6 1 -7 11 -3 13 5 16 3 11 -10 -3 -9 -2 -19 4 -22 14
-9 -1 -27 -18 -21 -8 3 -11 1 -8 -4 8 -13 35 -13 35 0 0 6 11 10 25 10 14 0
25 -6 25 -12 0 -10 2 -10 8 0 5 7 6 27 4 44 l-5 32 -22 -26 c-24 -28 -35 -27
-35 4 0 19 -25 25 -35 8z m81 -37 c-10 -10 -19 5 -10 18 6 11 8 11 12 0 2 -7
1 -15 -2 -18z"/>
<path d="M2027 123 c-11 -11 -8 -43 4 -43 6 0 9 -7 5 -15 -8 -22 0 -18 18 9 9
14 13 32 10 40 -6 16 -26 21 -37 9z m25 -18 c0 -5 -5 -11 -11 -13 -6 -2 -11 4
-11 13 0 9 5 15 11 13 6 -2 11 -8 11 -13z"/>
<path d="M550 93 c0 -10 4 -14 8 -8 4 6 11 13 16 18 5 4 2 7 -7 7 -10 0 -17
-8 -17 -17z"/>
<path d="M661 82 c-1 -27 2 -33 17 -30 10 2 18 14 20 31 2 25 2 25 -4 2 -7
-33 -22 -32 -27 3 -4 25 -4 24 -6 -6z"/>
<path d="M807 104 c-13 -13 -7 -24 14 -24 11 0 19 5 17 12 -5 14 -22 21 -31
12z"/>
<path d="M861 78 c2 -28 2 -29 6 -8 3 14 10 28 17 32 7 5 5 8 -6 8 -14 0 -18
-8 -17 -32z"/>
<path d="M900 93 c0 -10 4 -14 8 -8 4 6 11 13 16 18 5 4 2 7 -7 7 -10 0 -17
-8 -17 -17z"/>
<path d="M997 103 c-4 -3 -7 -11 -7 -17 0 -6 5 -4 10 4 7 11 12 12 21 3 14
-14 2 -36 -18 -29 -8 3 -11 1 -8 -4 9 -15 32 -12 39 5 11 30 -17 59 -37 38z"/>
<path d="M1054 95 c-8 -20 2 -45 18 -44 10 0 10 2 1 6 -7 2 -13 13 -13 23 0
10 6 21 13 23 9 4 9 6 -1 6 -7 1 -15 -6 -18 -14z"/>
<path d="M1194 95 c-8 -20 2 -45 18 -44 10 0 10 2 1 6 -7 2 -13 13 -13 23 0
10 6 21 13 23 9 4 9 6 -1 6 -7 1 -15 -6 -18 -14z"/>
<path d="M1245 100 c-3 -5 0 -7 8 -4 20 7 32 -15 18 -29 -9 -9 -14 -8 -22 3
-9 13 -10 13 -6 0 5 -21 33 -24 40 -5 13 32 -21 63 -38 35z"/>
<path d="M1301 77 c2 -31 2 -31 6 -4 2 15 8 27 13 27 5 0 11 -12 13 -27 l4
-28 2 28 c0 15 5 27 10 27 5 0 12 -12 14 -27 4 -27 4 -27 6 4 1 29 -1 31 -34
31 -33 0 -35 -2 -34 -31z"/>
<path d="M562 65 c-11 -12 -10 -15 3 -15 8 0 15 7 15 15 0 18 -2 18 -18 0z"/>
<path d="M912 65 c-11 -12 -10 -15 3 -15 8 0 15 7 15 15 0 18 -2 18 -18 0z"/>
<path d="M1120 71 c0 -5 5 -13 10 -16 6 -3 10 -2 10 4 0 5 -4 13 -10 16 -5 3
-10 2 -10 -4z"/>
<path d="M808 58 c5 -5 16 -8 23 -6 8 3 3 7 -10 11 -17 4 -21 3 -13 -5z"/>
</g>
</svg>
